<mxfile host="65bd71144e">
    <diagram id="fjN8D4Odn0497USpxgly" name="Page-1">
        <mxGraphModel dx="1051" dy="1609" grid="1" gridSize="10" guides="1" tooltips="1" connect="1" arrows="1" fold="1" page="1" pageScale="1" pageWidth="1169" pageHeight="827" background="#ffffff" math="0" shadow="0">
            <root>
                <mxCell id="0"/>
                <mxCell id="1" parent="0"/>
                <mxCell id="531" value="" style="rounded=0;whiteSpace=wrap;html=1;fillColor=#d5e8d4;strokeColor=#82b366;" parent="1" vertex="1">
                    <mxGeometry x="210" y="-760" width="300" height="40" as="geometry"/>
                </mxCell>
                <mxCell id="532" value="" style="rounded=0;whiteSpace=wrap;html=1;fillColor=#d5e8d4;strokeColor=#82b366;" parent="1" vertex="1">
                    <mxGeometry x="210" y="-720" width="300" height="40" as="geometry"/>
                </mxCell>
                <mxCell id="476" value="int" style="rounded=0;whiteSpace=wrap;html=1;fillColor=#fff2cc;strokeColor=#d6b656;" parent="1" vertex="1">
                    <mxGeometry x="149.5" y="-760" width="60.5" height="40" as="geometry"/>
                </mxCell>
                <mxCell id="477" value="int" style="rounded=0;whiteSpace=wrap;html=1;fillColor=#fff2cc;strokeColor=#d6b656;" parent="1" vertex="1">
                    <mxGeometry x="149.5" y="-720" width="60.5" height="40" as="geometry"/>
                </mxCell>
                <mxCell id="480" value="root_group_id" style="rounded=0;whiteSpace=wrap;html=1;" parent="1" vertex="1">
                    <mxGeometry x="220" y="-751.75" width="89.5" height="23.5" as="geometry"/>
                </mxCell>
                <mxCell id="481" value="Root Group ID" style="rounded=0;whiteSpace=wrap;html=1;" parent="1" vertex="1">
                    <mxGeometry x="309.5" y="-751.75" width="90" height="23.5" as="geometry"/>
                </mxCell>
                <mxCell id="492" value="root_group_id" style="rounded=0;whiteSpace=wrap;html=1;" parent="1" vertex="1">
                    <mxGeometry x="220" y="-711.75" width="90" height="23.5" as="geometry"/>
                </mxCell>
                <mxCell id="493" value="Root Group ID" style="rounded=0;whiteSpace=wrap;html=1;" parent="1" vertex="1">
                    <mxGeometry x="310" y="-711.75" width="90.5" height="23.5" as="geometry"/>
                </mxCell>
                <mxCell id="494" value="schema_id" style="rounded=0;whiteSpace=wrap;html=1;" parent="1" vertex="1">
                    <mxGeometry x="410" y="-711.75" width="70" height="23.5" as="geometry"/>
                </mxCell>
                <mxCell id="495" value="int" style="rounded=0;whiteSpace=wrap;html=1;" parent="1" vertex="1">
                    <mxGeometry x="480" y="-711.75" width="19.5" height="23.5" as="geometry"/>
                </mxCell>
                <mxCell id="520" value="&lt;b&gt;Name&lt;/b&gt;" style="rounded=0;whiteSpace=wrap;html=1;align=center;fillColor=#dae8fc;strokeColor=#6c8ebf;" parent="1" vertex="1">
                    <mxGeometry x="40" y="-800" width="120" height="40" as="geometry"/>
                </mxCell>
                <mxCell id="521" value="&lt;b&gt;Parameters&lt;/b&gt;" style="rounded=0;whiteSpace=wrap;html=1;align=center;fillColor=#dae8fc;strokeColor=#6c8ebf;" parent="1" vertex="1">
                    <mxGeometry x="210" y="-800" width="300" height="40" as="geometry"/>
                </mxCell>
                <mxCell id="522" value="&lt;b&gt;Returns&lt;/b&gt;" style="rounded=0;whiteSpace=wrap;html=1;align=center;fillColor=#dae8fc;strokeColor=#6c8ebf;" parent="1" vertex="1">
                    <mxGeometry x="150" y="-800" width="60" height="40" as="geometry"/>
                </mxCell>
                <mxCell id="482" value="add_instance" style="rounded=0;whiteSpace=wrap;html=1;fillColor=#e1d5e7;strokeColor=#9673a6;" parent="1" vertex="1">
                    <mxGeometry x="40" y="-720" width="110" height="40" as="geometry"/>
                </mxCell>
                <mxCell id="483" value="register_schema" style="rounded=0;whiteSpace=wrap;html=1;fillColor=#e1d5e7;strokeColor=#9673a6;" parent="1" vertex="1">
                    <mxGeometry x="40" y="-760" width="110" height="40" as="geometry"/>
                </mxCell>
                <mxCell id="534" value="Register configuration schema" style="rounded=0;whiteSpace=wrap;html=1;fillColor=#f5f5f5;strokeColor=#666666;fontColor=#333333;" parent="1" vertex="1">
                    <mxGeometry x="510" y="-760" width="220" height="40" as="geometry"/>
                </mxCell>
                <mxCell id="535" value="Add instance to configuration schema" style="rounded=0;whiteSpace=wrap;html=1;fillColor=#f5f5f5;strokeColor=#666666;fontColor=#333333;" parent="1" vertex="1">
                    <mxGeometry x="510" y="-720" width="220" height="40" as="geometry"/>
                </mxCell>
                <mxCell id="523" value="&lt;b&gt;Description&lt;/b&gt;" style="rounded=0;whiteSpace=wrap;html=1;align=center;fillColor=#dae8fc;strokeColor=#6c8ebf;" parent="1" vertex="1">
                    <mxGeometry x="510" y="-800" width="220" height="40" as="geometry"/>
                </mxCell>
            </root>
        </mxGraphModel>
    </diagram>
</mxfile>